<svg width="78" height="77" viewBox="0 0 78 77" fill="none" xmlns="http://www.w3.org/2000/svg">
<g id="&#240;&#159;&#166;&#134; icon &#34;clock outline&#34;">
<g id="Group">
<path id="Vector" d="M39.0002 6.49121C32.7214 6.49121 26.5837 8.35308 21.363 11.8414C16.1424 15.3297 12.0735 20.2877 9.67069 26.0886C7.26791 31.8894 6.63923 38.2725 7.86416 44.4306C9.08908 50.5887 12.1126 56.2453 16.5524 60.6851C20.9921 65.1248 26.6487 68.1484 32.8069 69.3733C38.965 70.5982 45.348 69.9695 51.1489 67.5668C56.9497 65.164 61.9078 61.095 65.3961 55.8744C68.8844 50.6538 70.7462 44.516 70.7462 38.2372C70.7462 34.0683 69.9251 29.9402 68.3297 26.0886C66.7343 22.237 64.3959 18.7373 61.448 15.7894C58.5001 12.8415 55.0005 10.5031 51.1489 8.90773C47.2973 7.31235 43.1691 6.49121 39.0002 6.49121ZM39.0002 63.6341C33.9772 63.6341 29.067 62.1446 24.8905 59.3539C20.714 56.5633 17.4588 52.5969 15.5366 47.9562C13.6144 43.3155 13.1114 38.2091 14.0914 33.2826C15.0713 28.3561 17.4901 23.8308 21.0419 20.279C24.5937 16.7272 29.119 14.3084 34.0455 13.3284C38.972 12.3485 44.0785 12.8514 48.7191 14.7736C53.3598 16.6959 57.3262 19.951 60.1169 24.1275C62.9075 28.304 64.397 33.2142 64.397 38.2372C64.397 44.9729 61.7213 51.4327 56.9585 56.1955C52.1956 60.9583 45.7359 63.6341 39.0002 63.6341Z" fill="#231F20"/>
<path id="Vector_2" d="M51.6986 35.0617H42.1748V25.5379C42.1748 24.6959 41.8403 23.8885 41.2449 23.2931C40.6496 22.6977 39.8421 22.3633 39.0002 22.3633C38.1582 22.3633 37.3507 22.6977 36.7554 23.2931C36.16 23.8885 35.8256 24.6959 35.8256 25.5379V38.2363C35.8256 39.0783 36.16 39.8857 36.7554 40.4811C37.3507 41.0764 38.1582 41.4109 39.0002 41.4109H51.6986C52.5405 41.4109 53.348 41.0764 53.9434 40.4811C54.5387 39.8857 54.8732 39.0783 54.8732 38.2363C54.8732 37.3943 54.5387 36.5869 53.9434 35.9915C53.348 35.3962 52.5405 35.0617 51.6986 35.0617Z" fill="#231F20"/>
</g>
</g>
</svg>
